<svg width="621" height="858" viewBox="0 0 621 858" fill="none" xmlns="http://www.w3.org/2000/svg">
<g opacity="0.2" clip-path="url(#clip0_8499_34724)">
<path d="M1731.2 -252.31L995.9 44.7695C923.43 74.0495 840.94 39.0395 811.66 -33.4405L514.57 -768.73" stroke="#B3B3B3" stroke-width="1.42" stroke-miterlimit="10"/>
<path d="M1730.06 -208.62L984.84 62.6196C911.39 89.3496 830.17 51.4796 803.44 -21.9704L532.2 -767.19" stroke="#B3B3B3" stroke-width="1.42" stroke-miterlimit="10"/>
<path d="M1727.4 -165L973.17 80.0698C898.83 104.22 818.99 63.5398 794.83 -10.8002L549.76 -765.03" stroke="#B3B3B3" stroke-width="1.42" stroke-miterlimit="10"/>
<path d="M1723.22 -121.5L960.89 97.0903C885.75 118.63 807.38 75.1902 785.83 0.0502319L567.24 -762.26" stroke="#B3B3B3" stroke-width="1.42" stroke-miterlimit="10"/>
<path d="M1717.52 -78.1696L948.03 113.69C872.19 132.6 795.38 86.4503 776.47 10.6003L584.61 -758.89" stroke="#B3B3B3" stroke-width="1.42" stroke-miterlimit="10"/>
<path d="M1710.31 -35.0602L934.59 129.82C858.13 146.07 782.98 97.2698 766.73 20.8098L601.85 -754.91" stroke="#B3B3B3" stroke-width="1.42" stroke-miterlimit="10"/>
<path d="M1701.61 7.76971L920.61 145.48C843.63 159.05 770.23 107.65 756.66 30.6797L618.94 -750.32" stroke="#B3B3B3" stroke-width="1.42" stroke-miterlimit="10"/>
<path d="M1511.15 445.979L735.43 281.099C658.97 264.849 610.17 189.689 626.42 113.24L791.3 -662.48" stroke="#B3B3B3" stroke-width="1.42" stroke-miterlimit="10"/>
<path d="M1485.77 481.56L716.28 289.7C640.44 270.79 594.28 193.98 613.19 118.14L805.05 -651.35" stroke="#B3B3B3" stroke-width="1.42" stroke-miterlimit="10"/>
<path d="M1459.17 516.24L696.84 297.65C621.7 276.11 578.26 197.73 599.8 122.59L818.41 -639.74" stroke="#B3B3B3" stroke-width="1.42" stroke-miterlimit="10"/>
<path d="M1431.38 549.97L677.15 304.9C602.81 280.75 562.13 200.9 586.28 126.56L831.35 -627.67" stroke="#B3B3B3" stroke-width="1.42" stroke-miterlimit="10"/>
<path d="M1402.43 582.7L657.21 311.46C583.76 284.73 545.89 203.51 572.62 130.06L843.86 -615.16" stroke="#B3B3B3" stroke-width="1.42" stroke-miterlimit="10"/>
<path d="M1372.35 614.41L637.05 317.33C564.58 288.05 529.56 205.56 558.84 133.09L855.92 -602.21" stroke="#B3B3B3" stroke-width="1.42" stroke-miterlimit="10"/>
<path d="M1341.18 645.05L616.69 322.49C545.28 290.7 513.17 207.04 544.96 135.63L867.53 -588.86" stroke="#B3B3B3" stroke-width="1.42" stroke-miterlimit="10"/>
<path d="M1308.97 674.58L596.18 326.93C525.93 292.67 496.75 207.94 531.02 137.68L878.67 -575.11" stroke="#B3B3B3" stroke-width="1.42" stroke-miterlimit="10"/>
<path d="M1275.74 702.959L575.52 330.65C506.51 293.95 480.31 208.259 517 139.24L889.31 -560.98" stroke="#B3B3B3" stroke-width="1.42" stroke-miterlimit="10"/>
<path d="M1241.54 730.18L554.74 333.66C487.05 294.58 463.85 208.02 502.94 140.33L899.46 -546.48" stroke="#B3B3B3" stroke-width="1.42" stroke-miterlimit="10"/>
<path d="M1206.41 756.18L533.87 335.93C467.58 294.51 447.43 207.2 488.85 140.91L909.1 -531.64" stroke="#B3B3B3" stroke-width="1.42" stroke-miterlimit="10"/>
<path d="M1170.4 780.94L512.93 337.47C448.13 293.76 431.03 205.8 474.74 141L918.21 -516.47" stroke="#B3B3B3" stroke-width="1.42" stroke-miterlimit="10"/>
<path d="M1133.54 804.42L491.95 338.28C428.71 292.34 414.7 203.83 460.64 140.59L926.79 -501" stroke="#B3B3B3" stroke-width="1.42" stroke-miterlimit="10"/>
<path d="M1095.89 826.609L470.96 338.359C409.37 290.239 398.45 201.29 446.57 139.7L934.82 -485.23" stroke="#B3B3B3" stroke-width="1.42" stroke-miterlimit="10"/>
<path d="M1057.49 847.469L449.98 337.71C390.1 287.47 382.29 198.2 432.54 138.32L942.29 -469.19" stroke="#B3B3B3" stroke-width="1.42" stroke-miterlimit="10"/>
<path d="M1018.38 866.98L429.03 336.32C370.94 284.02 366.25 194.53 418.55 136.44L949.21 -452.9" stroke="#B3B3B3" stroke-width="1.42" stroke-miterlimit="10"/>
<path d="M978.61 885.11L408.14 334.21C351.91 279.91 350.35 190.32 404.65 134.09L955.55 -436.38" stroke="#B3B3B3" stroke-width="1.42" stroke-miterlimit="10"/>
<path d="M938.24 901.84L387.34 331.37C333.04 275.14 334.61 185.55 390.83 131.25L961.31 -419.65" stroke="#B3B3B3" stroke-width="1.42" stroke-miterlimit="10"/>
<path d="M897.31 917.15L366.65 327.8C314.35 269.71 319.04 180.22 377.13 127.92L966.48 -402.73" stroke="#B3B3B3" stroke-width="1.42" stroke-miterlimit="10"/>
<path d="M855.86 931.02L346.1 323.51C295.86 263.63 303.67 174.36 363.54 124.12L971.06 -385.64" stroke="#B3B3B3" stroke-width="1.42" stroke-miterlimit="10"/>
<path d="M813.96 943.44L325.71 318.51C277.59 256.92 288.51 167.97 350.1 119.85L975.04 -368.4" stroke="#B3B3B3" stroke-width="1.42" stroke-miterlimit="10"/>
<path d="M771.65 954.39L305.51 312.8C259.57 249.56 273.58 161.06 336.82 115.11L978.41 -351.03" stroke="#B3B3B3" stroke-width="1.42" stroke-miterlimit="10"/>
<path d="M728.99 963.86L285.52 306.39C241.81 241.59 258.91 153.62 323.71 109.92L981.18 -333.55" stroke="#B3B3B3" stroke-width="1.42" stroke-miterlimit="10"/>
<path d="M686.02 971.83L265.77 299.29C224.35 233 244.51 145.69 310.79 104.27L983.33 -315.99" stroke="#B3B3B3" stroke-width="1.42" stroke-miterlimit="10"/>
<path d="M642.8 978.29L246.27 291.49C207.19 223.8 230.38 137.24 298.07 98.1596L984.87 -298.36" stroke="#B3B3B3" stroke-width="1.42" stroke-miterlimit="10"/>
<path d="M599.37 983.25L227.06 283.03C190.36 214.02 216.56 128.32 285.58 91.6196L985.8 -280.69" stroke="#B3B3B3" stroke-width="1.42" stroke-miterlimit="10"/>
<path d="M555.81 986.68L208.16 273.9C173.9 203.65 203.07 118.92 273.32 84.65L986.11 -263" stroke="#B3B3B3" stroke-width="1.42" stroke-miterlimit="10"/>
<path d="M512.14 988.6L189.58 264.11C157.79 192.7 189.9 109.04 261.31 77.2504L985.8 -245.31" stroke="#B3B3B3" stroke-width="1.42" stroke-miterlimit="10"/>
<path d="M468.44 988.98L171.36 253.68C142.08 181.21 177.09 98.7204 249.57 69.4404L984.87 -227.64" stroke="#B3B3B3" stroke-width="1.42" stroke-miterlimit="10"/>
<path d="M424.75 987.85L153.52 242.63C126.79 169.18 164.66 87.9602 238.11 61.2302L983.33 -210.01" stroke="#B3B3B3" stroke-width="1.42" stroke-miterlimit="10"/>
<path d="M381.13 985.19L136.07 230.95C111.92 156.61 152.6 76.77 226.94 52.61L981.17 -192.46" stroke="#B3B3B3" stroke-width="1.42" stroke-miterlimit="10"/>
<path d="M337.63 981L119.04 218.68C97.5002 143.54 140.94 65.1702 216.08 43.6202L978.41 -174.97" stroke="#B3B3B3" stroke-width="1.42" stroke-miterlimit="10"/>
<path d="M294.3 975.31L102.44 205.82C83.5299 129.98 129.68 53.1704 205.53 34.2604L975.02 -157.6" stroke="#B3B3B3" stroke-width="1.42" stroke-miterlimit="10"/>
<path d="M251.19 968.1L86.3101 192.38C70.0601 115.92 118.86 40.7697 195.32 24.5197L971.04 -140.36" stroke="#B3B3B3" stroke-width="1.42" stroke-miterlimit="10"/>
<path d="M208.37 959.391L70.6602 178.391C57.0902 101.41 108.49 28.0105 185.46 14.4405L966.46 -123.27" stroke="#B3B3B3" stroke-width="1.42" stroke-miterlimit="10"/>
<path d="M165.87 949.2L55.4998 163.87C44.6198 86.4704 98.5498 14.9004 175.95 4.02039L961.28 -106.35" stroke="#B3B3B3" stroke-width="1.42" stroke-miterlimit="10"/>
<path d="M123.75 937.53L40.86 148.82C32.69 71.0801 89.08 1.44014 166.82 -6.72986L955.52 -89.6299" stroke="#B3B3B3" stroke-width="1.42" stroke-miterlimit="10"/>
<path d="M82.0702 924.39L26.7502 133.27C21.3002 55.2997 80.0902 -12.3303 158.06 -17.7903L949.18 -73.1104" stroke="#B3B3B3" stroke-width="1.42" stroke-miterlimit="10"/>
<path d="M40.8698 909.81L13.1998 117.24C10.4698 39.1197 71.5898 -26.4103 149.7 -29.1403L942.27 -56.8203" stroke="#B3B3B3" stroke-width="1.42" stroke-miterlimit="10"/>
<path d="M0.209961 893.8V100.75C0.209961 22.5898 63.57 -40.7803 141.74 -40.7803H934.78" stroke="#B3B3B3" stroke-width="1.42" stroke-miterlimit="10"/>
<rect x="-88.5" width="453" height="858" fill="url(#paint0_linear_8499_34724)"/>
</g>
<defs>
<linearGradient id="paint0_linear_8499_34724" x1="-88.5" y1="414" x2="364.5" y2="414" gradientUnits="userSpaceOnUse">
<stop stop-color="#E6E6E6"/>
<stop offset="1" stop-color="#E6E6E6" stop-opacity="0"/>
</linearGradient>
<clipPath id="clip0_8499_34724">
<rect width="621" height="858" fill="white"/>
</clipPath>
</defs>
</svg>
